<?xml version="1.0" encoding="utf-8"?><svg xmlns="http://www.w3.org/2000/svg" xmlns:xlink="http://www.w3.org/1999/xlink"><symbol viewBox="0 0 1024 1024" fill-rule="evenodd" clip-rule="evenodd" stroke-linejoin="round" stroke-miterlimit="1.414" id="anker" xmlns="http://www.w3.org/2000/svg"><path d="M234.66 371.43c-8.77 28.603-31.212 48.867-57.488 48.867-33.845 0-61.321-33.611-61.321-75.013 0-41.4 27.476-75.013 61.32-75.013 26.2 0 48.583 20.142 57.36 48.447h190.102c1.562-11.427 13.285-20.316 27.494-20.318h11.263l2.877-46.905c-59.115-15.62-101.977-61.508-101.977-115.623 0-66.965 65.641-121.334 146.493-121.334 80.853 0 146.495 54.37 146.495 121.334 0 54.676-43.76 100.955-103.826 116.1l2.57 46.428h12.56c14.316.083 25.937 8.942 27.493 20.318H786.31c9.223-27.166 31.13-46.29 56.658-46.29 33.844 0 61.32 33.612 61.32 75.013 0 41.4-27.476 75.011-61.32 75.011-26.935 0-49.838-21.289-58.112-51.022H595.772c-2.54 10.66-13.662 18.577-27.19 18.65h-7.484l20.794 375.59c1.639 44.509 12.187 77.644 39.672 89.153l.038.159c95.3-20.508 171.67-65.961 216.252-119.023l-83.002-52.297 244.026-108.33-17.145 251.286-78.838-49.676c-16.99 130.146-187.293 232.52-394.587 232.52-205.024 0-373.865-100.145-393.975-228.253l-72.067 45.41-17.144-251.287 244.025 108.33-81.75 51.51c43.151 52.617 116.39 97.833 208.756 118.868 23.16-18.944 34.633-49.812 38.569-88.37l23.044-375.59h-5.64c-13.429 0-24.635-7.943-27.188-18.65H234.659zM510.782 66.214c46.418 0 84.102 31.214 84.102 69.658 0 38.446-37.684 69.66-84.102 69.66-46.417 0-84.101-31.214-84.101-69.66 0-38.444 37.684-69.658 84.1-69.658z"/></symbol></svg>