<svg xmlns="http://www.w3.org/2000/svg">
  <symbol viewBox="0 850 500 500" id="anker">
    <path d="M168.094 168.252c0-10.558-10.35-19.129-23.097-19.129s-23.096 8.571-23.096 19.129 10.349 19.13 23.096 19.13 23.097-8.572 23.097-19.13z" fill="none"/>
    <path d="M364.05 1167.857l38.514 24.266c-20.688 24.623-56.124 45.713-100.344 55.229l-.02-.072c-12.754-5.342-17.646-20.717-18.409-41.367l-9.648-174.281h3.472c6.279-.033 11.44-3.707 12.617-8.654h87.739c3.838 13.798 14.466 23.676 26.966 23.676 15.703 0 28.453-15.596 28.453-34.806 0-19.212-12.75-34.808-28.453-34.808-11.848 0-22.01 8.875-26.292 21.479h-88.271c-.723-5.278-6.115-9.39-12.759-9.429h-5.828l-1.191-21.543c27.871-7.027 48.177-28.502 48.177-53.871 0-31.073-30.458-56.301-67.975-56.301-37.518 0-67.975 25.229-67.975 56.301 0 25.109 19.888 46.402 47.319 53.649l-1.335 21.765h-5.226c-6.594 0-12.033 4.127-12.76 9.429h-88.211c-4.071-13.134-14.46-22.479-26.616-22.479-15.704 0-28.454 15.598-28.454 34.808 0 19.212 12.75 34.808 28.454 34.808 12.194 0 22.606-9.404 26.675-22.676h88.292c1.185 4.967 6.384 8.654 12.618 8.654h2.617l-10.692 174.279c-1.827 17.893-7.151 32.217-17.897 41.006-42.859-9.761-76.846-30.742-96.868-55.157l37.936-23.901-113.235-50.269 7.957 116.6 33.438-21.07c9.331 59.445 87.678 105.912 182.812 105.912 96.187 0 175.21-47.503 183.092-107.893l36.583 23.051 7.955-116.6-113.227 50.265zm-152.276-254.184c0-17.839 17.486-32.321 39.024-32.321 21.539 0 39.026 14.482 39.026 32.321 0 17.84-17.487 32.323-39.026 32.323-21.538 0-39.024-14.483-39.024-32.323z"/>
  </symbol>
</svg>
