<svg width="100%" height="100%" viewBox="0 0 1024 1024" version="1.1" xmlns="http://www.w3.org/2000/svg" xmlns:xlink="http://www.w3.org/1999/xlink" xml:space="preserve" fill-rule="evenodd" clip-rule="evenodd" stroke-linejoin="round" stroke-miterlimit="1.41421"><g><path d="M118.985,188.595C114.842,202.107 104.241,211.68 91.828,211.68C75.84,211.68 62.86,195.802 62.86,176.244C62.86,156.687 75.84,140.808 91.828,140.808C104.204,140.808 114.778,150.323 118.924,163.694L208.728,163.694C209.466,158.296 215.004,154.097 221.716,154.096L227.037,154.096L228.396,131.938C200.47,124.559 180.222,102.882 180.222,77.318C180.222,45.684 211.231,20 249.425,20C287.62,20 318.629,45.684 318.629,77.318C318.629,103.147 297.957,125.009 269.582,132.163L270.796,154.096L276.729,154.096C283.492,154.135 288.982,158.32 289.717,163.694L379.583,163.694C383.94,150.861 394.289,141.827 406.348,141.827C422.336,141.827 435.316,157.705 435.316,177.263C435.316,196.82 422.336,212.698 406.348,212.698C393.624,212.698 382.805,202.641 378.896,188.595L289.574,188.595C288.374,193.631 283.12,197.371 276.729,197.405L273.194,197.405L283.017,374.833C283.791,395.859 288.774,411.512 301.758,416.949L301.776,417.024C346.795,407.336 382.872,385.864 403.933,360.798L364.723,336.093L480,284.918L471.901,403.625L434.658,380.158C426.632,441.639 346.181,490 248.256,490C151.403,490 71.643,442.692 62.143,382.174L28.099,403.625L20,284.918L135.277,336.093L96.658,360.426C117.043,385.282 151.641,406.642 195.274,416.579C206.215,407.63 211.635,393.048 213.494,374.833L224.38,197.405L221.716,197.405C215.372,197.405 210.078,193.653 208.872,188.595L118.985,188.595ZM249.425,44.412C271.353,44.412 289.155,59.157 289.155,77.318C289.155,95.48 271.353,110.225 249.425,110.225C227.498,110.225 209.696,95.48 209.696,77.318C209.696,59.157 227.498,44.412 249.425,44.412L249.425,44.412Z" transform="matrix(2.11686,0,0,2.11686,-17.2152,-27.7995)"/></g></svg>